# xmcd
#
# Track frame offsets:
#	150
#	14686
#	28355
#	40911
#	57191
#	74347
#	88468
#	101508
#	113464
#	126293
#	143227
#	155978
#
# Disc length: 2282
#
# Revision: 2
# Processed by: cddbd v1.5.1PL0 Copyright (c) Steve Scherf et al.
# Submitted via: CDex 1.30Release
# Normalized: r1:TRMNUM
#
DISCID=b108e80c
DTITLE=Jean-Guy Piché - Jean-Guy Piché et la Tournée du Bonheur
DYEAR=1900
DGENRE=Country
TTITLE0=La Destiné la rose au bois
TTITLE1=Ah si mon moine
TTITLE2=Pot-pourri (valse)
TTITLE3=Les gens sympathiques
TTITLE4=Quand le soleil
TTITLE5=Amazing Grace
TTITLE6=Pot-pourri (charleston)
TTITLE7=Lève-toi
TTITLE8=C'est l'aviron
TTITLE9=Pot-pourri (rhumba)
TTITLE10=Ça c'est fâchant
TTITLE11=Pot-pourri (valse-country)
EXTD=ID3G:   2
EXTT0=
EXTT1=
EXTT2=
EXTT3=
EXTT4=
EXTT5=
EXTT6=
EXTT7=
EXTT8=
EXTT9=
EXTT10=
EXTT11=
PLAYORDER=
